<svg width="12" height="12" viewBox="0 0 12 12" fill="none" xmlns="http://www.w3.org/2000/svg">
<path d="M11.2826 1.28318L6.28255 6.28318C6.21287 6.3531 6.13008 6.40857 6.03892 6.44643C5.94775 6.48428 5.85001 6.50377 5.7513 6.50377C5.65259 6.50377 5.55485 6.48428 5.46369 6.44643C5.37252 6.40857 5.28973 6.3531 5.22005 6.28318L0.220051 1.28318C0.0791548 1.14228 -2.09952e-09 0.951183 0 0.751926C2.09952e-09 0.552669 0.0791548 0.361572 0.220051 0.220676C0.360947 0.0797797 0.552044 0.000625136 0.751301 0.000625134C0.950558 0.000625131 1.14165 0.0797797 1.28255 0.220676L5.75193 4.69005L10.2213 0.220051C10.3622 0.079155 10.5533 0 10.7526 0C10.9518 0 11.1429 0.079155 11.2838 0.220051C11.4247 0.360948 11.5039 0.552044 11.5039 0.751301C11.5039 0.950559 11.4247 1.14166 11.2838 1.28255L11.2826 1.28318Z" fill="#FFB700"/>
<path d="M0.221356 10.2206L5.22136 5.22061C5.29103 5.15069 5.37383 5.09521 5.46499 5.05736C5.55616 5.0195 5.6539 5.00002 5.75261 5.00002C5.85132 5.00002 5.94906 5.0195 6.04022 5.05736C6.13138 5.09521 6.21418 5.15069 6.28386 5.22061L11.2839 10.2206C11.4248 10.3615 11.5039 10.5526 11.5039 10.7519C11.5039 10.9511 11.4248 11.1422 11.2839 11.2831C11.143 11.424 10.9519 11.5032 10.7526 11.5032C10.5533 11.5032 10.3623 11.424 10.2214 11.2831L5.75198 6.81373L1.28261 11.2837C1.14171 11.4246 0.950614 11.5038 0.751356 11.5038C0.552099 11.5038 0.361002 11.4246 0.220106 11.2837C0.0792099 11.1428 5.3454e-05 10.9517 5.34714e-05 10.7525C5.34889e-05 10.5532 0.07921 10.3621 0.220106 10.2212L0.221356 10.2206Z" fill="#FFB700"/>
</svg>
