<svg width="26" height="26" viewBox="0 0 26 26" fill="none" xmlns="http://www.w3.org/2000/svg">
<path d="M18.0427 12.7945C16.8232 13.3221 16.2639 14.7244 16.7934 15.9266C17.323 17.1288 18.7409 17.6757 19.9604 17.1481C21.1799 16.6205 21.7392 15.2182 21.2096 14.016C20.6801 12.8138 19.2622 12.2669 18.0427 12.7945Z" stroke="#FFB700" stroke-width="1.5948" stroke-linecap="round" stroke-linejoin="round"/>
<path d="M16.7637 14.1081L12.6678 12.5283" stroke="#FFB700" stroke-width="1.5948" stroke-linecap="round" stroke-linejoin="round"/>
<path d="M9.33626 20.8806L14.2834 8.47752" stroke="#FFB700" stroke-width="1.5948" stroke-linecap="round" stroke-linejoin="round"/>
<path d="M14.2075 4.08739C12.988 4.61499 12.4287 6.01728 12.9582 7.21949C13.4878 8.42169 14.9057 8.96857 16.1252 8.44097C17.3447 7.91336 17.904 6.51108 17.3744 5.30887C16.8449 4.10666 15.427 3.55979 14.2075 4.08739Z" stroke="#FFB700" stroke-width="1.5948" stroke-linecap="round" stroke-linejoin="round"/>
<path d="M9.71191 11.3882L4.22258 9.27102" stroke="#FFB700" stroke-width="1.5948" stroke-linecap="round" stroke-linejoin="round"/>
</svg>
